<svg width="400" height="100" viewBox="0 0 400 100" fill="none" xmlns="http://www.w3.org/2000/svg">
<mask id="mask0_2_2" style="mask-type:alpha" maskUnits="userSpaceOnUse" x="32" y="20" width="337" height="62">
<path d="M165.293 34.1601C165.931 37.108 166.619 40.2279 167.356 43.5197C168.092 46.8115 168.854 50.0788 169.64 53.3215C170.475 56.5642 171.31 59.7086 172.145 62.7548C172.98 65.8009 173.766 68.5769 174.502 71.0826C175.092 68.3312 175.657 65.285 176.197 61.9441C176.737 58.554 177.253 55.0165 177.744 51.3316C178.285 47.6468 178.776 43.8391 179.218 39.9085C179.66 35.978 180.028 32.0474 180.323 28.1169H186.807C185.677 37.9924 184.4 47.0817 182.975 55.385C181.6 63.6883 179.979 71.623 178.113 79.1893H171.408C170.671 76.7819 169.861 74.1042 168.977 71.1563C168.141 68.2084 167.306 65.1622 166.471 62.0178C165.636 58.8242 164.826 55.6061 164.04 52.3634C163.254 49.1207 162.542 45.9763 161.903 42.9301C161.265 45.9763 160.553 49.1207 159.767 52.3634C158.981 55.6061 158.17 58.8242 157.335 62.0178C156.5 65.1622 155.641 68.2084 154.757 71.1563C153.922 74.1042 153.136 76.7819 152.399 79.1893H145.694C143.828 71.623 142.182 63.6883 140.758 55.385C139.382 47.0817 138.13 37.9924 137 28.1169H143.705C143.999 32.0474 144.368 35.978 144.81 39.9085C145.252 43.7899 145.719 47.5976 146.21 51.3316C146.75 55.0165 147.29 58.554 147.831 61.9441C148.371 65.285 148.936 68.3312 149.525 71.0826C150.262 68.5769 151.048 65.8009 151.883 62.7548C152.718 59.7086 153.529 56.5642 154.314 53.3215C155.149 50.0788 155.935 46.8115 156.672 43.5197C157.409 40.2279 158.097 37.108 158.735 34.1601H165.293Z" fill="white"/>
<path d="M195.49 79.1893V23.1055L201.827 22V40.7192C202.76 40.4244 203.767 40.1787 204.848 39.9822C205.977 39.7857 207.107 39.6874 208.237 39.6874C209.858 39.6874 211.38 39.9576 212.805 40.4981C214.229 40.9894 215.457 41.8492 216.489 43.0775C217.569 44.3058 218.404 45.9763 218.994 48.0889C219.632 50.1525 219.952 52.7319 219.952 55.8272V79.1893H213.615V56.3431C213.615 52.5108 213.124 49.7103 212.142 47.9416C211.159 46.1728 209.317 45.2884 206.616 45.2884C205.191 45.2884 203.595 45.5341 201.827 46.0254V79.1893H195.49Z" fill="white"/>
<path d="M231.624 41.3088C232.901 40.7683 234.252 40.3507 235.676 40.0559C237.101 39.712 238.648 39.54 240.318 39.54C243.756 39.54 246.556 40.6209 248.717 42.7827C250.879 44.8954 251.959 48.2118 251.959 52.7319V78.3787C250.191 78.87 248.374 79.263 246.507 79.5578C244.69 79.8526 242.897 80 241.129 80C239.36 80 237.69 79.7789 236.118 79.3367C234.596 78.8945 233.245 78.1821 232.066 77.1995C230.936 76.2169 230.028 74.9886 229.34 73.5146C228.652 71.9915 228.308 70.1491 228.308 67.9873C228.308 65.9729 228.603 64.2287 229.193 62.7548C229.831 61.2317 230.691 59.9788 231.771 58.9962C232.852 57.9644 234.129 57.2029 235.603 56.7116C237.076 56.1711 238.673 55.9009 240.392 55.9009C242.013 55.9009 243.806 56.0974 245.77 56.4905V52.953C245.77 50.1033 245.205 48.1135 244.076 46.9835C242.995 45.8535 241.423 45.2884 239.36 45.2884C238.231 45.2884 237.15 45.4113 236.118 45.6569C235.136 45.8535 234.08 46.1974 232.95 46.6887L231.624 41.3088ZM234.645 67.9136C234.645 70.1737 235.234 71.8441 236.413 72.925C237.592 74.0059 239.262 74.5464 241.423 74.5464C242.749 74.5464 244.198 74.3744 245.77 74.0305V61.723C244.297 61.3299 242.848 61.1334 241.423 61.1334C240.49 61.1334 239.606 61.2562 238.771 61.5019C237.936 61.6984 237.199 62.0669 236.56 62.6074C235.971 63.0987 235.504 63.7865 235.161 64.6709C234.817 65.5061 234.645 66.587 234.645 67.9136Z" fill="white"/>
<path d="M268.875 40.4981H278.601V45.9517H268.875V67.2503C268.875 69.9034 269.342 71.7704 270.275 72.8513C271.258 73.8831 272.559 74.399 274.18 74.399C275.015 74.399 275.801 74.2762 276.538 74.0305C277.324 73.7848 277.987 73.49 278.527 73.1461L279.78 78.2313C277.766 79.4104 275.629 80 273.37 80C269.735 80 267.009 78.9928 265.191 76.9784C263.423 74.9149 262.539 71.5248 262.539 66.8081V30.1067L268.875 29.0013V40.4981Z" fill="white"/>
<path d="M287.095 79.1893V28.1169H310.009V33.7916H293.726V49.6366H308.462V55.1639H293.726V73.5146H311.188V79.1893H287.095Z" fill="white"/>
<path d="M320.844 41.3088C322.121 40.7683 323.472 40.3507 324.896 40.0559C326.321 39.712 327.868 39.54 329.538 39.54C332.977 39.54 335.776 40.6209 337.938 42.7827C340.099 44.8954 341.179 48.2118 341.179 52.7319V78.3787C339.411 78.87 337.594 79.263 335.727 79.5578C333.91 79.8526 332.117 80 330.349 80C328.58 80 326.91 79.7789 325.339 79.3367C323.816 78.8945 322.465 78.1821 321.286 77.1995C320.156 76.2169 319.248 74.9886 318.56 73.5146C317.872 71.9915 317.529 70.1491 317.529 67.9873C317.529 65.9729 317.823 64.2287 318.413 62.7548C319.051 61.2317 319.911 59.9788 320.992 58.9962C322.072 57.9644 323.349 57.2029 324.823 56.7116C326.296 56.1711 327.893 55.9009 329.612 55.9009C331.233 55.9009 333.026 56.0974 334.99 56.4905V52.953C334.99 50.1033 334.426 48.1135 333.296 46.9835C332.215 45.8535 330.643 45.2884 328.58 45.2884C327.451 45.2884 326.37 45.4113 325.339 45.6569C324.356 45.8535 323.3 46.1974 322.17 46.6887L320.844 41.3088ZM323.865 67.9136C323.865 70.1737 324.454 71.8441 325.633 72.925C326.812 74.0059 328.482 74.5464 330.643 74.5464C331.97 74.5464 333.419 74.3744 334.99 74.0305V61.723C333.517 61.3299 332.068 61.1334 330.643 61.1334C329.71 61.1334 328.826 61.2562 327.991 61.5019C327.156 61.6984 326.419 62.0669 325.781 62.6074C325.191 63.0987 324.725 63.7865 324.381 64.6709C324.037 65.5061 323.865 66.587 323.865 67.9136Z" fill="white"/>
<path d="M358.096 40.4981H367.821V45.9517H358.096V67.2503C358.096 69.9034 358.562 71.7704 359.495 72.8513C360.478 73.8831 361.779 74.399 363.4 74.399C364.235 74.399 365.021 74.2762 365.758 74.0305C366.544 73.7848 367.207 73.49 367.747 73.1461L369 78.2313C366.986 79.4104 364.849 80 362.59 80C358.955 80 356.229 78.9928 354.412 76.9784C352.643 74.9149 351.759 71.5248 351.759 66.8081V30.1067L358.096 29.0013V40.4981Z" fill="white"/>
<path opacity="0.934" fill-rule="evenodd" clip-rule="evenodd" d="M51.7594 20.1142C59.4267 19.5503 66.6461 21.075 73.4173 24.6885C77.7823 27.4977 81.3298 31.1073 84.0596 35.5174C86.0417 36.8212 88.22 37.568 90.5943 37.7579C96.0446 38.0217 101.335 37.2126 106.464 35.3307C113.5 34.6627 117.638 37.8055 118.88 44.7594C119.637 52.5477 116.806 58.6156 110.385 62.9632C107.091 64.6201 103.606 65.2424 99.9296 64.8303C98.1634 64.6802 96.4208 64.4001 94.7018 63.9901C94.5463 67.7849 94.4529 71.5812 94.4218 75.3792C94.2242 76.7604 93.5086 77.7873 92.2746 78.4598C89.7326 79.7022 87.0566 80.5114 84.2463 80.887C75.3257 82.1103 66.4259 81.9858 57.5473 80.5136C55.4642 80.089 53.4727 79.4044 51.5727 78.4598C50.4243 77.8103 49.7087 76.8456 49.4256 75.5659C49.3323 70.6497 49.3011 65.733 49.3323 60.8161C39.2933 59.5213 33.5366 53.858 32.0619 43.8259C31.4215 33.5604 35.7469 26.2477 45.038 21.8879C47.2251 20.9991 49.4656 20.4079 51.7594 20.1142ZM51.9461 23.2882C70.925 22.5823 82.1585 31.5442 85.6466 50.1739C86.6697 51.2077 87.6033 51.1455 88.4472 49.9872C88.3256 46.571 87.5476 43.3037 86.1133 40.1851C91.0067 41.2861 95.9233 41.2861 100.863 40.1851C102.941 39.7124 104.994 39.1522 107.024 38.5047C111.515 37.9575 114.347 39.8557 115.52 44.1993C116.527 50.2011 114.753 55.211 110.198 59.2291C106.72 61.5138 102.924 62.2607 98.8094 61.4696C100.041 60.6119 101.005 59.5228 101.703 58.2022C102.038 56.2332 101.26 55.5176 99.3695 56.0551C97.0439 59.6752 93.7453 61.1066 89.4741 60.3494C84.4425 58.7342 80.0237 56.1203 76.2179 52.5077C71.5381 49.2374 66.3725 47.9304 60.7213 48.5869C59.1183 46.3305 58.2159 43.81 58.0141 41.0253C57.1943 40.1349 56.3231 40.0725 55.4002 40.8386C55.0617 43.9362 55.7152 46.8302 57.3606 49.5204C56.0361 50.2618 54.8225 51.1642 53.7199 52.2276C51.4839 50.3583 49.9902 47.9935 49.2389 45.1328C48.7932 43.3404 48.4198 41.5355 48.1187 39.7183C47.8332 39.1552 47.3664 38.9063 46.7184 38.9715C46.1039 38.9302 45.6371 39.1793 45.3181 39.7183C45.2232 45.656 47.308 50.666 51.5727 54.7482C50.9187 55.6197 50.3586 56.5532 49.8924 57.5488C41.5116 56.6371 36.6261 52.0006 35.236 43.6392C34.7767 33.9448 39.1021 27.4413 48.212 24.1284C49.474 23.8082 50.7186 23.5281 51.9461 23.2882ZM62.7751 51.4808C66.3864 51.4502 69.7471 52.3525 72.8572 54.1881C75.8759 56.6462 79.0499 58.8867 82.3792 60.9095C85.16 62.5314 88.1473 63.4961 91.3411 63.8034C91.3723 66.418 91.3411 69.0319 91.2478 71.6451C88.7735 70.5674 86.1908 69.8516 83.4995 69.4979C74.7543 68.2584 66.0413 68.4451 57.3606 70.0581C55.7096 70.4322 54.0916 70.899 52.5063 71.4584C52.4751 67.537 52.5063 63.6161 52.5996 59.6959C54.3225 54.8419 57.7142 52.1035 62.7751 51.4808ZM68.9364 71.8318C75.4424 71.5986 81.8527 72.252 88.1671 73.7922C89.267 74.0932 90.2629 74.5911 91.1544 75.2858C88.8999 76.5816 86.4728 77.3906 83.8729 77.713C76.2889 78.7561 68.6961 78.8183 61.0947 77.8997C58.2075 77.5519 55.4691 76.7427 52.8797 75.4725C52.7008 75.2584 52.763 75.0717 53.0664 74.9124C55.1416 73.9111 57.3199 73.2265 59.6011 72.8587C62.7247 72.3631 65.8365 72.0207 68.9364 71.8318Z" fill="white"/>
</mask>
<g mask="url(#mask0_2_2)">
<rect x="18" y="-25" width="363" height="150" fill="url(#paint0_linear_2_2)"/>
</g>
<defs>
<linearGradient id="paint0_linear_2_2" x1="38.5" y1="-7" x2="420.5" y2="133" gradientUnits="userSpaceOnUse">
<stop stop-color="#26A35B"/>
<stop offset="1" stop-color="#93F9B9"/>
</linearGradient>
</defs>
</svg>
